<svg width="426.29375px" height="122px" xmlns="http://www.w3.org/2000/svg" viewBox="36.853125000000006 14 426.29375 122" style="background: rgba(0, 0, 0, 0);" preserveAspectRatio="xMidYMid"><defs><linearGradient id="editing-gradient-gradient" x1="0" x2="1" y1="0.5" y2="0.5" gradientUnits="objectBoundingBox"><stop offset="0" stop-color="#ffffff"></stop><stop offset="1" stop-color="#007ced"></stop></linearGradient></defs><g><g transform="translate(102.25497651100159, 98.68000030517578)"><path d="M28.42-9.86L28.42-9.86L28.42-9.86Q29.63-8.32 29.63-5.82L29.63-5.82L29.63-5.82Q29.63-2.37 27.07-0.54L27.07-0.54L27.07-0.54Q24.51 1.28 20.48 1.28L20.48 1.28L20.48 1.28Q18.18 1.28 14.66 0.77L14.66 0.77L14.66 0.77Q7.74-0.32 5.63-0.32L5.63-0.32L5.63-0.32Q3.52-0.32 2.69-0.22L2.69-0.22L2.69-0.22Q1.86-0.13 0.51 0L0.51 0L8.38-42.24L35.97-42.24L35.97-42.24Q35.97-38.34 34.08-36.29L34.08-36.29L34.08-36.29Q32.19-34.24 28.48-34.24L28.48-34.24L28.48-34.24Q24.77-34.24 20.99-35.97L20.99-35.97L19.01-24.77L30.40-24.77L30.40-24.77Q30.40-21.38 28.74-19.49L28.74-19.49L28.74-19.49Q27.07-17.60 24.29-17.60L24.29-17.60L24.29-17.60Q21.50-17.60 19.78-18.24L19.78-18.24L19.78-18.24Q18.05-18.88 17.86-19.07L17.86-19.07L15.55-6.98L15.55-6.98Q17.09-6.78 19.97-6.78L19.97-6.78L19.97-6.78Q24.90-6.78 28.42-9.86ZM36.54-6.40L36.54-6.40L36.54-6.40Q36.54-8.13 37.44-12.48L37.44-12.48L40.83-29.76L37.06-29.76L37.31-31.68L37.31-31.68Q44.99-33.98 52.42-39.62L52.42-39.62L55.49-39.62L53.95-32.64L58.94-32.64L58.37-29.76L53.44-29.76L50.18-12.48L50.18-12.48Q49.34-8.51 49.34-7.17L49.34-7.17L49.34-7.17Q49.34-4.10 52.03-3.46L52.03-3.46L52.03-3.46Q51.39-1.28 49.09 0L49.09 0L49.09 0Q46.78 1.28 43.52 1.28L43.52 1.28L43.52 1.28Q40.26 1.28 38.40-0.77L38.40-0.77L38.40-0.77Q36.54-2.82 36.54-6.40ZM90.82-7.10L90.82-7.10L90.82-7.10Q90.82-4.29 93.70-3.46L93.70-3.46L93.70-3.46Q92.99-1.09 90.24 0.19L90.24 0.19L90.24 0.19Q87.94 1.28 85.41 1.28L85.41 1.28L85.41 1.28Q82.88 1.28 81.57 0.61L81.57 0.61L81.57 0.61Q80.26-0.06 79.55-1.15L79.55-1.15L79.55-1.15Q78.40-2.82 78.40-5.95L78.40-5.95L78.40-5.95Q78.40-7.81 79.42-12.93L79.42-12.93L80.32-17.79L80.32-17.79Q81.41-23.36 81.41-25.41L81.41-25.41L81.41-25.41Q81.41-28.99 79.42-28.99L79.42-28.99L79.42-28.99Q76.93-28.99 75.33-25.34L75.33-25.34L75.33-25.34Q74.69-23.94 74.24-21.82L74.24-21.82L69.89 0L57.02 1.28L66.05-44.80L78.91-46.08L78.40-43.52L78.40-43.52Q76.61-33.66 75.07-30.34L75.07-30.34L75.07-30.34Q78.66-33.92 85.25-33.92L85.25-33.92L85.25-33.92Q92.22-33.92 93.50-29.31L93.50-29.31L93.50-29.31Q93.95-27.84 93.95-26.56L93.95-26.56L93.95-26.56Q93.95-25.28 93.86-24.29L93.86-24.29L93.86-24.29Q93.76-23.30 93.44-21.50L93.44-21.50L92.61-16.90L91.14-9.66L91.14-9.66Q90.82-8.19 90.82-7.10ZM124.80-10.82L124.80-10.82L124.80-10.82Q126.40-9.73 126.40-7.33L126.40-7.33L126.40-7.33Q126.40-4.93 125.18-3.39L125.18-3.39L125.18-3.39Q123.97-1.86 121.98-0.83L121.98-0.83L121.98-0.83Q117.89 1.28 113.47 1.28L113.47 1.28L113.47 1.28Q109.06 1.28 106.46 0.32L106.46 0.32L106.46 0.32Q103.87-0.64 102.14-2.43L102.14-2.43L102.14-2.43Q98.75-5.82 98.75-12.03L98.75-12.03L98.75-12.03Q98.75-21.70 104-27.58L104-27.58L104-27.58Q109.63-33.92 119.42-33.92L119.42-33.92L119.42-33.92Q125.50-33.92 128.51-31.36L128.51-31.36L128.51-31.36Q130.75-29.44 130.75-26.30L130.75-26.30L130.75-26.30Q130.75-15.04 111.30-15.04L111.30-15.04L111.30-15.04Q111.04-13.38 111.04-11.97L111.04-11.97L111.04-11.97Q111.04-9.02 112.35-7.90L112.35-7.90L112.35-7.90Q113.66-6.78 116.10-6.78L116.10-6.78L116.10-6.78Q118.53-6.78 121.12-7.90L121.12-7.90L121.12-7.90Q123.71-9.02 124.80-10.82ZM111.74-17.79L111.74-17.79L111.74-17.79Q116.29-17.79 118.91-20.61L118.91-20.61L118.91-20.61Q121.54-23.30 121.54-27.58L121.54-27.58L121.54-27.58Q121.54-29.06 120.99-29.86L120.99-29.86L120.99-29.86Q120.45-30.66 119.36-30.66L119.36-30.66L119.36-30.66Q118.27-30.66 117.34-30.24L117.34-30.24L117.34-30.24Q116.42-29.82 115.46-28.42L115.46-28.42L115.46-28.42Q113.09-25.22 111.74-17.79ZM152.96-17.98L152.96-17.98L152.96-17.98Q155.26-22.08 155.26-26.24L155.26-26.24L155.26-26.24Q155.26-28.99 153.28-28.99L153.28-28.99L153.28-28.99Q151.74-28.99 150.14-26.37L150.14-26.37L150.14-26.37Q148.48-23.74 147.97-20.35L147.97-20.35L144.64 0L131.39 1.28L137.92-32.64L148.48-33.92L147.33-27.46L147.33-27.46Q150.46-33.92 157.50-33.92L157.50-33.92L157.50-33.92Q161.22-33.92 163.23-32L163.23-32L163.23-32Q165.25-30.08 165.25-26.14L165.25-26.14L165.25-26.14Q165.25-22.21 162.66-19.71L162.66-19.71L162.66-19.71Q160.06-17.22 155.65-17.22L155.65-17.22L155.65-17.22Q153.73-17.22 152.96-17.98ZM192.19-10.82L192.19-10.82L192.19-10.82Q193.79-9.73 193.79-7.33L193.79-7.33L193.79-7.33Q193.79-4.93 192.58-3.39L192.58-3.39L192.58-3.39Q191.36-1.86 189.38-0.83L189.38-0.83L189.38-0.83Q185.28 1.28 180.86 1.28L180.86 1.28L180.86 1.28Q176.45 1.28 173.86 0.32L173.86 0.32L173.86 0.32Q171.26-0.64 169.54-2.43L169.54-2.43L169.54-2.43Q166.14-5.82 166.14-12.03L166.14-12.03L166.14-12.03Q166.14-21.70 171.39-27.58L171.39-27.58L171.39-27.58Q177.02-33.92 186.82-33.92L186.82-33.92L186.82-33.92Q192.90-33.92 195.90-31.36L195.90-31.36L195.90-31.36Q198.14-29.44 198.14-26.30L198.14-26.30L198.14-26.30Q198.14-15.04 178.69-15.04L178.69-15.04L178.69-15.04Q178.43-13.38 178.43-11.97L178.43-11.97L178.43-11.97Q178.43-9.02 179.74-7.90L179.74-7.90L179.74-7.90Q181.06-6.78 183.49-6.78L183.49-6.78L183.49-6.78Q185.92-6.78 188.51-7.90L188.51-7.90L188.51-7.90Q191.10-9.02 192.19-10.82ZM179.14-17.79L179.14-17.79L179.14-17.79Q183.68-17.79 186.30-20.61L186.30-20.61L186.30-20.61Q188.93-23.30 188.93-27.58L188.93-27.58L188.93-27.58Q188.93-29.06 188.38-29.86L188.38-29.86L188.38-29.86Q187.84-30.66 186.75-30.66L186.75-30.66L186.75-30.66Q185.66-30.66 184.74-30.24L184.74-30.24L184.74-30.24Q183.81-29.82 182.85-28.42L182.85-28.42L182.85-28.42Q180.48-25.22 179.14-17.79ZM220.86-2.69L220.86-2.69L220.86-2.69Q217.79 1.28 210.18 1.28L210.18 1.28L210.18 1.28Q206.21 1.28 203.33-1.12L203.33-1.12L203.33-1.12Q200.45-3.52 200.45-6.98L200.45-6.98L200.45-6.98Q200.45-8.90 200.64-9.86L200.64-9.86L204.93-32.64L217.92-33.92L213.25-9.22L213.25-9.22Q212.99-7.81 212.99-6.98L212.99-6.98L212.99-6.98Q212.99-3.26 215.23-3.26L215.23-3.26L215.23-3.26Q217.73-3.26 219.52-6.66L219.52-6.66L219.52-6.66Q220.10-7.74 220.35-9.15L220.35-9.15L224.90-32.64L237.50-33.92L232.77-8.96L232.77-8.96Q232.58-8 232.58-6.98L232.58-6.98L232.58-6.98Q232.58-5.95 233.15-4.83L233.15-4.83L233.15-4.83Q233.73-3.71 235.58-3.46L235.58-3.46L235.58-3.46Q235.20-1.92 233.86-0.90L233.86-0.90L233.86-0.90Q231.04 1.28 228 1.28L228 1.28L228 1.28Q224.96 1.28 223.17 0.19L223.17 0.19L223.17 0.19Q221.38-0.90 220.86-2.69ZM287.04 1.28L287.04 1.28L287.04 1.28Q279.30 1.28 279.30-4.74L279.30-4.74L279.30-4.74Q279.30-7.36 280.42-12.45L280.42-12.45L280.42-12.45Q281.54-17.54 281.92-19.58L281.92-19.58L281.92-19.58Q282.82-24.26 282.82-25.73L282.82-25.73L282.82-25.73Q282.82-28.99 280.38-28.99L280.38-28.99L280.38-28.99Q278.78-28.99 277.25-26.78L277.25-26.78L277.25-26.78Q275.71-24.58 275.01-20.16L275.01-20.16L271.04 0L258.56 1.28L262.02-16.13L262.02-16.13Q262.59-19.01 263.10-22.27L263.10-22.27L263.10-22.27Q263.62-25.54 263.62-26.05L263.62-26.05L263.62-26.05Q263.62-28.99 261.44-28.99L261.44-28.99L261.44-28.99Q259.97-28.99 258.37-26.82L258.37-26.82L258.37-26.82Q256.77-24.64 255.87-20.16L255.87-20.16L251.97 0L239.36 1.28L246.08-32.64L256.51-33.92L255.42-27.46L255.42-27.46Q257.09-30.91 260.16-32.42L260.16-32.42L260.16-32.42Q263.23-33.92 268.03-33.92L268.03-33.92L268.03-33.92Q270.78-33.92 272.58-32.58L272.58-32.58L272.58-32.58Q274.37-31.23 274.94-29.06L274.94-29.06L274.94-29.06Q276.03-31.30 278.82-32.61L278.82-32.61L278.82-32.61Q281.60-33.92 285.02-33.92L285.02-33.92L285.02-33.92Q288.45-33.92 290.14-33.18L290.14-33.18L290.14-33.18Q291.84-32.45 292.86-31.23L292.86-31.23L292.86-31.23Q294.59-28.99 294.59-24.90L294.59-24.90L294.59-24.90Q294.59-20.86 292.86-12.48L292.86-12.48L292.86-12.48Q291.97-8.38 291.97-6.88L291.97-6.88L291.97-6.88Q291.97-5.38 292.83-4.48L292.83-4.48L292.83-4.48Q293.70-3.58 294.98-3.46L294.98-3.46L294.98-3.46Q294.34-1.28 292.13 0L292.13 0L292.13 0Q289.92 1.28 287.04 1.28Z" fill="url(#editing-gradient-gradient)"></path></g></g><style>text {
  font-size: 64px;
  font-family: Arial Black;
  dominant-baseline: central;
  text-anchor: middle;
}</style></svg>