<svg width="178.303466796875px" height="122px" xmlns="http://www.w3.org/2000/svg" viewBox="160.8482666015625 14 178.303466796875 122" style="background: rgba(0, 0, 0, 0);" preserveAspectRatio="xMidYMid"><defs><linearGradient id="editing-gradient-gradient" x1="0" x2="1" y1="0.5" y2="0.5" gradientUnits="objectBoundingBox"><stop offset="0" stop-color="#ffffff"></stop><stop offset="1" stop-color="#007ced"></stop></linearGradient></defs><g><g transform="translate(193.81168681383133, 97.46500015258789)"><path d="M7.68 0L0.64 0L8.32-42.24L22.08-42.24L32.06-13.18L37.38-42.24L44.48-42.18L36.67 0L22.02 0L12.80-27.97L7.68 0ZM75.20-33.92L75.20-33.92L75.20-33.92Q70.02-33.92 66.24-35.65L66.24-35.65L64.19-25.28L76.54-25.28L76.54-25.28Q76.54-21.89 74.85-19.74L74.85-19.74L74.85-19.74Q73.15-17.60 70.08-17.60L70.08-17.60L70.08-17.60Q66.75-17.60 63.68-18.82L63.68-18.82L63.68-18.82Q63.04-19.07 62.98-19.14L62.98-19.14L59.33 0L45.38 0L53.50-42.24L82.05-42.24L82.05-42.24Q82.05-38.34 80.22-36.13L80.22-36.13L80.22-36.13Q78.40-33.92 75.20-33.92ZM85.57-31.17L85.57-31.17L85.57-31.17Q83.39-32.83 83.39-36.38L83.39-36.38L83.39-36.38Q83.39-39.94 85.73-41.79L85.73-41.79L85.73-41.79Q88.06-43.65 92.10-43.65L92.10-43.65L92.10-43.65Q94.66-43.65 100.74-42.75L100.74-42.75L105.09-42.11L105.09-42.11Q107.26-41.86 109.54-41.86L109.54-41.86L109.54-41.86Q111.81-41.86 113.34-42.82L113.34-42.82L113.34-42.82Q115.65-40.77 115.65-37.82L115.65-37.82L115.65-37.82Q115.65-34.88 113.02-32.77L113.02-32.77L113.02-32.77Q110.34-30.53 106.88-30.53L106.88-30.53L106.88-30.53Q105.22-30.53 102.53-30.98L102.53-30.98L102.53-30.98Q99.39-21.12 99.39-14.27L99.39-14.27L99.39-14.27Q99.39-7.42 102.85-3.84L102.85-3.84L102.85-3.84Q101.25-0.96 98.88 0.16L98.88 0.16L98.88 0.16Q96.51 1.28 92.96 1.28L92.96 1.28L92.96 1.28Q89.41 1.28 87.20-0.67L87.20-0.67L87.20-0.67Q84.99-2.62 84.99-6.66L84.99-6.66L84.99-6.66Q84.99-11.33 87.55-19.01L87.55-19.01L87.55-19.01Q90.11-26.62 93.95-32.45L93.95-32.45L93.95-32.45Q92.10-32.64 90.18-32.64L90.18-32.64L90.18-32.64Q86.21-32.64 85.57-31.17Z" fill="url(#editing-gradient-gradient)"></path></g></g><style>text {
  font-size: 64px;
  font-family: Arial Black;
  dominant-baseline: central;
  text-anchor: middle;
}</style></svg>