<svg width="347.1125px" height="122px" xmlns="http://www.w3.org/2000/svg" viewBox="76.44375 14 347.1125 122" style="background: rgba(0, 0, 0, 0);" preserveAspectRatio="xMidYMid"><defs><linearGradient id="editing-gradient-gradient" x1="0" x2="1" y1="0.5" y2="0.5" gradientUnits="objectBoundingBox"><stop offset="0" stop-color="#ffffff"></stop><stop offset="1" stop-color="#007ced"></stop></linearGradient></defs><g><g transform="translate(130.25498688220978, 104.79000091552734)"><path d="M26.05-29.57L26.05-29.57L26.05-29.57Q27.01-31.49 27.01-33.28L27.01-33.28L27.01-33.28Q27.01-35.07 26.82-36.06L26.82-36.06L26.82-36.06Q26.62-37.06 26.18-37.82L26.18-37.82L26.18-37.82Q25.22-39.49 23.30-39.49L23.30-39.49L23.30-39.49Q20.93-39.49 19.01-37.76L19.01-37.76L19.01-37.76Q16.96-35.97 16.96-33.15L16.96-33.15L16.96-33.15Q16.96-31.36 18.21-29.98L18.21-29.98L18.21-29.98Q19.46-28.61 21.38-27.33L21.38-27.33L21.38-27.33Q23.30-26.05 25.47-24.77L25.47-24.77L25.47-24.77Q27.65-23.49 29.57-21.95L29.57-21.95L29.57-21.95Q33.98-18.43 33.98-13.70L33.98-13.70L33.98-13.70Q33.98-10.50 32.29-7.78L32.29-7.78L32.29-7.78Q30.59-5.06 27.78-3.07L27.78-3.07L27.78-3.07Q21.63 1.28 13.50 1.28L13.50 1.28L13.50 1.28Q6.91 1.28 3.52-0.86L3.52-0.86L3.52-0.86Q0.13-3.01 0.13-6.27L0.13-6.27L0.13-6.27Q0.13-12.10 4.67-13.57L4.67-13.57L4.67-13.57Q5.95-14.02 7.90-14.02L7.90-14.02L7.90-14.02Q9.86-14.02 12.10-13.18L12.10-13.18L12.10-13.18Q11.07-10.56 11.07-8.19L11.07-8.19L11.07-8.19Q11.07-3.07 14.72-3.07L14.72-3.07L14.72-3.07Q17.09-3.07 19.04-4.80L19.04-4.80L19.04-4.80Q20.99-6.53 20.99-8.48L20.99-8.48L20.99-8.48Q20.99-10.43 19.74-11.84L19.74-11.84L19.74-11.84Q18.50-13.25 16.64-14.37L16.64-14.37L16.64-14.37Q14.78-15.49 12.64-16.58L12.64-16.58L12.64-16.58Q10.50-17.66 8.64-19.20L8.64-19.20L8.64-19.20Q4.29-22.72 4.29-28.35L4.29-28.35L4.29-28.35Q4.29-32 6.08-34.85L6.08-34.85L6.08-34.85Q7.87-37.70 10.75-39.62L10.75-39.62L10.75-39.62Q16.51-43.52 23.58-43.52L23.58-43.52L23.58-43.52Q30.66-43.52 34.08-41.41L34.08-41.41L34.08-41.41Q37.50-39.30 37.50-35.71L37.50-35.71L37.50-35.71Q37.50-32.58 35.07-30.59L35.07-30.59L35.07-30.59Q32.96-28.93 30.40-28.93L30.40-28.93L30.40-28.93Q27.84-28.93 26.05-29.57ZM52.80 1.28L52.80 1.28L52.80 1.28Q38.72 1.28 38.72-11.97L38.72-11.97L38.72-11.97Q38.72-21.38 43.90-27.46L43.90-27.46L43.90-27.46Q49.41-33.92 58.94-33.92L58.94-33.92L58.94-33.92Q65.86-33.92 69.38-30.72L69.38-30.72L69.38-30.72Q72.90-27.52 72.90-20.80L72.90-20.80L72.90-20.80Q72.90-10.56 67.39-4.61L67.39-4.61L67.39-4.61Q62.02 1.28 52.80 1.28ZM54.46-26.56L54.46-26.56L54.46-26.56Q53.70-24.83 53.09-22.24L53.09-22.24L53.09-22.24Q52.48-19.65 51.71-15.55L51.71-15.55L51.71-15.55Q50.94-11.46 50.94-6.40L50.94-6.40L50.94-6.40Q50.94-4.74 51.49-3.65L51.49-3.65L51.49-3.65Q52.03-2.56 53.50-2.56L53.50-2.56L53.50-2.56Q54.98-2.56 55.90-3.26L55.90-3.26L55.90-3.26Q56.83-3.97 57.54-5.63L57.54-5.63L57.54-5.63Q58.82-8.58 59.84-14.05L59.84-14.05L59.84-14.05Q60.86-19.52 60.96-21.89L60.96-21.89L60.96-21.89Q61.06-24.26 61.06-26.02L61.06-26.02L61.06-26.02Q61.06-27.78 60.54-28.93L60.54-28.93L60.54-28.93Q60.03-30.08 58.59-30.08L58.59-30.08L58.59-30.08Q57.15-30.08 56.19-29.18L56.19-29.18L56.19-29.18Q55.23-28.29 54.46-26.56ZM91.97-3.52L91.97-3.52L91.97-3.52Q89.98 1.28 83.65 1.28L83.65 1.28L83.65 1.28Q80.45 1.28 78.40-0.96L78.40-0.96L78.40-0.96Q76.74-2.82 76.74-4.93L76.74-4.93L76.74-4.93Q76.74-9.73 78.98-20.22L78.98-20.22L83.65-44.80L96.64-46.08L90.43-13.70L90.43-13.70Q89.34-8.96 89.34-7.30L89.34-7.30L89.34-7.30Q89.34-3.65 91.97-3.52ZM112.77-3.52L112.77-3.52L112.77-3.52Q110.78 1.28 104.45 1.28L104.45 1.28L104.45 1.28Q101.18 1.28 99.14-0.96L99.14-0.96L99.14-0.96Q97.41-2.94 97.41-4.93L97.41-4.93L97.41-4.93Q97.41-10.11 99.78-20.22L99.78-20.22L102.14-32.64L115.14-33.92L111.23-13.70L111.23-13.70Q110.14-8.96 110.14-7.30L110.14-7.30L110.14-7.30Q110.14-3.65 112.77-3.52ZM103.30-41.54L103.30-41.54L103.30-41.54Q103.30-44.03 105.38-45.38L105.38-45.38L105.38-45.38Q107.46-46.72 110.46-46.72L110.46-46.72L110.46-46.72Q113.47-46.72 115.30-45.38L115.30-45.38L115.30-45.38Q117.12-44.03 117.12-41.54L117.12-41.54L117.12-41.54Q117.12-39.04 115.10-37.76L115.10-37.76L115.10-37.76Q113.09-36.48 110.08-36.48L110.08-36.48L110.08-36.48Q107.07-36.48 105.18-37.76L105.18-37.76L105.18-37.76Q103.30-39.04 103.30-41.54ZM138.37-33.92L138.37-33.92L138.37-33.92Q140.67-33.92 142.46-33.41L142.46-33.41L142.46-33.41Q142.53-33.66 142.66-34.37L142.66-34.37L142.98-36.35L142.98-36.35Q143.23-37.63 143.62-39.74L143.62-39.74L144.64-44.80L157.38-46.08L150.27-8.96L150.27-8.96Q150.21-8.58 150.21-7.94L150.21-7.94L150.21-6.91L150.21-6.91Q150.21-5.50 150.91-4.45L150.91-4.45L150.91-4.45Q151.62-3.39 152.77-3.39L152.77-3.39L152.77-3.39Q151.49-0.38 147.58 0.90L147.58 0.90L147.58 0.90Q146.24 1.28 144.35 1.28L144.35 1.28L144.35 1.28Q142.46 1.28 140.74 0.29L140.74 0.29L140.74 0.29Q139.01-0.70 138.50-2.37L138.50-2.37L138.50-2.37Q137.47-0.70 135.42 0.29L135.42 0.29L135.42 0.29Q133.38 1.28 130.40 1.28L130.40 1.28L130.40 1.28Q127.42 1.28 124.96 0.51L124.96 0.51L124.96 0.51Q122.50-0.26 120.96-1.92L120.96-1.92L120.96-1.92Q118.14-5.18 118.14-12.61L118.14-12.61L118.14-12.61Q118.14-22.21 123.78-28.03L123.78-28.03L123.78-28.03Q129.41-33.92 138.37-33.92ZM137.92-30.08L137.92-30.08L137.92-30.08Q135.55-30.08 134.27-27.52L134.27-27.52L134.27-27.52Q132.99-24.96 131.68-18.62L131.68-18.62L131.68-18.62Q130.37-12.29 130.37-6.59L130.37-6.59L130.37-6.59Q130.37-2.69 132.67-2.69L132.67-2.69L132.67-2.69Q134.72-2.69 136.16-4.74L136.16-4.74L136.16-4.74Q137.60-6.78 138.18-10.18L138.18-10.18L141.63-28.93L141.63-28.93Q140.29-30.08 137.92-30.08ZM173.57-3.52L173.57-3.52L173.57-3.52Q171.58 1.28 165.25 1.28L165.25 1.28L165.25 1.28Q161.98 1.28 159.94-0.96L159.94-0.96L159.94-0.96Q158.21-2.94 158.21-4.93L158.21-4.93L158.21-4.93Q158.21-10.11 160.58-20.22L160.58-20.22L162.94-32.64L175.94-33.92L172.03-13.70L172.03-13.70Q170.94-8.96 170.94-7.30L170.94-7.30L170.94-7.30Q170.94-3.65 173.57-3.52ZM164.10-41.54L164.10-41.54L164.10-41.54Q164.10-44.03 166.18-45.38L166.18-45.38L166.18-45.38Q168.26-46.72 171.26-46.72L171.26-46.72L171.26-46.72Q174.27-46.72 176.10-45.38L176.10-45.38L176.10-45.38Q177.92-44.03 177.92-41.54L177.92-41.54L177.92-41.54Q177.92-39.04 175.90-37.76L175.90-37.76L175.90-37.76Q173.89-36.48 170.88-36.48L170.88-36.48L170.88-36.48Q167.87-36.48 165.98-37.76L165.98-37.76L165.98-37.76Q164.10-39.04 164.10-41.54ZM180.03-6.40L180.03-6.40L180.03-6.40Q180.03-8.13 180.93-12.48L180.93-12.48L184.32-29.76L180.54-29.76L180.80-31.68L180.80-31.68Q188.48-33.98 195.90-39.62L195.90-39.62L198.98-39.62L197.44-32.64L202.43-32.64L201.86-29.76L196.93-29.76L193.66-12.48L193.66-12.48Q192.83-8.51 192.83-7.17L192.83-7.17L192.83-7.17Q192.83-4.10 195.52-3.46L195.52-3.46L195.52-3.46Q194.88-1.28 192.58 0L192.58 0L192.58 0Q190.27 1.28 187.01 1.28L187.01 1.28L187.01 1.28Q183.74 1.28 181.89-0.77L181.89-0.77L181.89-0.77Q180.03-2.82 180.03-6.40ZM222.46-7.23L222.46-7.23L222.46-7.23Q219.14-3.78 213.06-3.78L213.06-3.78L213.06-3.78Q205.44-3.78 203.84-9.34L203.84-9.34L203.84-9.34Q203.33-11.01 203.33-12.86L203.33-12.86L203.33-12.86Q203.33-14.72 203.71-16.64L203.71-16.64L206.72-32.64L219.71-33.92L216.19-15.30L216.19-15.30Q216.06-14.46 215.87-13.57L215.87-13.57L215.87-13.57Q215.68-12.67 215.68-11.74L215.68-11.74L215.68-11.74Q215.68-10.82 216-10.21L216-10.21L216-10.21Q216.32-9.60 216.77-9.22L216.77-9.22L216.77-9.22Q217.54-8.70 218.91-8.70L218.91-8.70L218.91-8.70Q220.29-8.70 221.47-10.37L221.47-10.37L221.47-10.37Q222.66-12.03 223.23-14.91L223.23-14.91L226.75-32.64L239.36-33.92L234.56-8.77L234.56-8.77Q232.19 3.52 227.33 8.38L227.33 8.38L227.33 8.38Q224.83 10.88 221.60 11.87L221.60 11.87L221.60 11.87Q218.37 12.86 214.21 12.86L214.21 12.86L214.21 12.86Q207.49 12.86 203.65 10.75L203.65 10.75L203.65 10.75Q199.81 8.64 199.81 5.12L199.81 5.12L199.81 5.12Q199.81 2.50 201.79 0.99L201.79 0.99L201.79 0.99Q203.78-0.51 206.85-0.51L206.85-0.51L206.85-0.51Q209.54-0.51 211.58 0.64L211.58 0.64L211.58 0.64Q212.80 1.34 213.38 2.24L213.38 2.24L213.38 2.24Q211.90 3.52 211.90 5.63L211.90 5.63L211.90 5.63Q211.90 8.45 214.46 8.45L214.46 8.45L214.46 8.45Q218.69 8.45 221.12-1.28L221.12-1.28L221.12-1.28Q221.82-4.16 222.46-7.23Z" fill="url(#editing-gradient-gradient)"></path></g></g><style>text {
  font-size: 64px;
  font-family: Arial Black;
  dominant-baseline: central;
  text-anchor: middle;
}</style></svg>