<svg width="324.74375px" height="122px" xmlns="http://www.w3.org/2000/svg" viewBox="87.62812500000001 14 324.74375 122" style="background: rgba(0, 0, 0, 0);" preserveAspectRatio="xMidYMid"><defs><linearGradient id="editing-gradient-gradient" x1="0" x2="1" y1="0.5" y2="0.5" gradientUnits="objectBoundingBox"><stop offset="0" stop-color="#ffffff"></stop><stop offset="1" stop-color="#007ced"></stop></linearGradient></defs><g><g transform="translate(137.26498651504517, 98.71000099182129)"><path d="M2.69-39.68L2.69-39.68L2.69-39.68Q3.58-41.47 5.54-42.46L5.54-42.46L5.54-42.46Q7.49-43.46 10.18-43.46L10.18-43.46L10.18-43.46Q14.40-43.46 16.93-40.42L16.93-40.42L16.93-40.42Q19.46-37.38 19.46-30.72L19.46-30.72L19.46-7.87L34.11-42.18L41.66-42.18L43.39-9.79L43.20-7.94L58.43-42.18L67.20-42.18L46.72 0L33.09 0L31.81-19.46L23.36 0L7.94 0L6.02-30.72L6.02-30.72Q5.82-34.18 4.90-36.45L4.90-36.45L4.90-36.45Q3.97-38.72 2.69-39.68ZM89.28-10.82L89.28-10.82L89.28-10.82Q90.88-9.73 90.88-7.33L90.88-7.33L90.88-7.33Q90.88-4.93 89.66-3.39L89.66-3.39L89.66-3.39Q88.45-1.86 86.46-0.83L86.46-0.83L86.46-0.83Q82.37 1.28 77.95 1.28L77.95 1.28L77.95 1.28Q73.54 1.28 70.94 0.32L70.94 0.32L70.94 0.32Q68.35-0.64 66.62-2.43L66.62-2.43L66.62-2.43Q63.23-5.82 63.23-12.03L63.23-12.03L63.23-12.03Q63.23-21.70 68.48-27.58L68.48-27.58L68.48-27.58Q74.11-33.92 83.90-33.92L83.90-33.92L83.90-33.92Q89.98-33.92 92.99-31.36L92.99-31.36L92.99-31.36Q95.23-29.44 95.23-26.30L95.23-26.30L95.23-26.30Q95.23-15.04 75.78-15.04L75.78-15.04L75.78-15.04Q75.52-13.38 75.52-11.97L75.52-11.97L75.52-11.97Q75.52-9.02 76.83-7.90L76.83-7.90L76.83-7.90Q78.14-6.78 80.58-6.78L80.58-6.78L80.58-6.78Q83.01-6.78 85.60-7.90L85.60-7.90L85.60-7.90Q88.19-9.02 89.28-10.82ZM76.22-17.79L76.22-17.79L76.22-17.79Q80.77-17.79 83.39-20.61L83.39-20.61L83.39-20.61Q86.02-23.30 86.02-27.58L86.02-27.58L86.02-27.58Q86.02-29.06 85.47-29.86L85.47-29.86L85.47-29.86Q84.93-30.66 83.84-30.66L83.84-30.66L83.84-30.66Q82.75-30.66 81.82-30.24L81.82-30.24L81.82-30.24Q80.90-29.82 79.94-28.42L79.94-28.42L79.94-28.42Q77.57-25.22 76.22-17.79ZM96.58-3.07L96.58-3.07L104.51-44.80L117.50-46.08L115.52-36.29L115.52-36.29Q114.82-33.28 113.92-31.17L113.92-31.17L113.92-31.17Q115.33-32.96 118.40-33.66L118.40-33.66L118.40-33.66Q119.30-33.92 120.38-33.92L120.38-33.92L120.38-33.92Q126.34-33.92 129.60-30.30L129.60-30.30L129.60-30.30Q132.86-26.69 132.86-19.71L132.86-19.71L132.86-19.71Q132.86-10.62 127.68-4.93L127.68-4.93L127.68-4.93Q122.11 1.28 112 1.28L112 1.28L112 1.28Q105.02 1.28 99.78-1.02L99.78-1.02L99.78-1.02Q97.92-1.86 96.58-3.07ZM112.83-22.40L109.44-3.65L109.44-3.65Q110.78-2.50 112.45-2.50L112.45-2.50L112.45-2.50Q114.11-2.50 115.07-3.14L115.07-3.14L115.07-3.14Q116.03-3.78 116.74-5.06L116.74-5.06L116.74-5.06Q118.66-8.51 120.19-19.07L120.19-19.07L120.19-19.07Q120.64-22.08 120.64-25.09L120.64-25.09L120.64-25.09Q120.64-28.10 119.97-29.06L119.97-29.06L119.97-29.06Q119.30-30.02 118.02-30.02L118.02-30.02L118.02-30.02Q114.11-30.02 112.83-22.40L112.83-22.40ZM157.44-23.10L157.44-23.10L157.44-23.10Q165.89-20.93 165.89-12.67L165.89-12.67L165.89-12.67Q165.89-6.72 160.83-2.82L160.83-2.82L160.83-2.82Q155.46 1.28 146.62 1.28L146.62 1.28L146.62 1.28Q141.38 1.28 138.24-0.74L138.24-0.74L138.24-0.74Q135.10-2.75 135.10-6.08L135.10-6.08L135.10-6.08Q135.10-9.41 137.60-11.46L137.60-11.46L137.60-11.46Q138.88-9.09 141.15-8L141.15-8L141.15-8Q143.42-6.91 146.34-6.91L146.34-6.91L146.34-6.91Q149.25-6.91 151.10-8.45L151.10-8.45L151.10-8.45Q152.96-9.98 152.96-12.99L152.96-12.99L152.96-12.99Q152.96-18.69 145.15-18.69L145.15-18.69L146.24-24.45L146.24-24.45Q155.58-25.98 155.58-30.59L155.58-30.59L155.58-30.59Q155.58-32.45 154.30-33.47L154.30-33.47L154.30-33.47Q153.02-34.50 150.59-34.50L150.59-34.50L150.59-34.50Q146.30-34.50 142.53-30.53L142.53-30.53L142.53-30.53Q141.31-30.85 140.80-31.71L140.80-31.71L140.80-31.71Q140.29-32.58 140.29-34.37L140.29-34.37L140.29-34.37Q140.29-36.16 141.57-37.86L141.57-37.86L141.57-37.86Q142.85-39.55 145.09-40.83L145.09-40.83L145.09-40.83Q149.89-43.52 156.35-43.52L156.35-43.52L156.35-43.52Q161.28-43.52 164.42-40.96L164.42-40.96L164.42-40.96Q167.68-38.34 167.68-34.43L167.68-34.43L167.68-34.43Q167.68-30.91 164.86-27.84L164.86-27.84L164.86-27.84Q162.05-24.77 157.44-23.10ZM168.83-3.78L168.83-3.78L168.83-3.78Q168.83-6.21 170.72-7.55L170.72-7.55L170.72-7.55Q172.61-8.90 175.30-8.90L175.30-8.90L175.30-8.90Q177.98-8.90 179.62-7.55L179.62-7.55L179.62-7.55Q181.25-6.21 181.25-3.78L181.25-3.78L181.25-3.78Q181.25-1.34 179.42-0.03L179.42-0.03L179.42-0.03Q177.60 1.28 174.91 1.28L174.91 1.28L174.91 1.28Q172.22 1.28 170.53-0.03L170.53-0.03L170.53-0.03Q168.83-1.34 168.83-3.78ZM188.22-15.23L188.22-15.23L188.22-15.23Q188.22-28.16 194.30-35.84L194.30-35.84L194.30-35.84Q200.38-43.52 210.82-43.52L210.82-43.52L210.82-43.52Q216.38-43.52 219.58-39.36L219.58-39.36L219.58-39.36Q222.78-35.20 222.78-28.26L222.78-28.26L222.78-28.26Q222.78-21.31 221.22-15.90L221.22-15.90L221.22-15.90Q219.65-10.50 216.83-6.66L216.83-6.66L216.83-6.66Q210.94 1.34 201.15 1.34L201.15 1.34L201.15 1.34Q194.56 1.34 191.39-2.72L191.39-2.72L191.39-2.72Q188.22-6.78 188.22-15.23ZM199.55-10.88L199.55-10.88L199.55-10.88Q199.55-4.42 201.66-4.42L201.66-4.42L201.66-4.42Q203.58-4.42 205.34-6.66L205.34-6.66L205.34-6.66Q207.10-8.90 208.51-12.67L208.51-12.67L208.51-12.67Q211.52-20.93 211.52-31.17L211.52-31.17L211.52-31.17Q211.52-34.62 210.98-36.19L210.98-36.19L210.98-36.19Q210.43-37.76 208.99-37.76L208.99-37.76L208.99-37.76Q207.55-37.76 205.86-35.26L205.86-35.26L205.86-35.26Q204.16-32.77 202.75-28.86L202.75-28.86L202.75-28.86Q199.55-19.97 199.55-10.88Z" fill="url(#editing-gradient-gradient)"></path></g></g><style>text {
  font-size: 64px;
  font-family: Arial Black;
  dominant-baseline: central;
  text-anchor: middle;
}</style></svg>