<svg width="48" height="48" viewBox="0 0 48 48" fill="none" xmlns="http://www.w3.org/2000/svg">
<path d="M12 29.001C12 29.5314 11.7893 30.0401 11.4142 30.4152C11.0391 30.7903 10.5304 31.001 10 31.001C9.46957 31.001 8.96086 30.7903 8.58579 30.4152C8.21071 30.0401 8 29.5314 8 29.001V20.001C8 19.4705 8.21071 18.9618 8.58579 18.5868C8.96086 18.2117 9.46957 18.001 10 18.001C10.5304 18.001 11.0391 18.2117 11.4142 18.5868C11.7893 18.9618 12 19.4705 12 20.001V29.001ZM40 29.001C40 29.5314 39.7893 30.0401 39.4142 30.4152C39.0391 30.7903 38.5304 31.001 38 31.001C37.4696 31.001 36.9609 30.7903 36.5858 30.4152C36.2107 30.0401 36 29.5314 36 29.001V20.001C36 19.4705 36.2107 18.9618 36.5858 18.5868C36.9609 18.2117 37.4696 18.001 38 18.001C38.5304 18.001 39.0391 18.2117 39.4142 18.5868C39.7893 18.9618 40 19.4705 40 20.001V29.001ZM22 40C22 40.5304 21.7893 41.0391 21.4142 41.4142C21.0391 41.7893 20.5304 42 20 42C19.4696 42 18.9609 41.7893 18.5858 41.4142C18.2107 41.0391 18 40.5304 18 40V31C18 30.4695 18.2107 29.9608 18.5858 29.5858C18.9609 29.2107 19.4696 29 20 29C20.5304 29 21.0391 29.2107 21.4142 29.5858C21.7893 29.9608 22 30.4695 22 31V40ZM30 40C30 40.5304 29.7893 41.0391 29.4142 41.4142C29.0391 41.7893 28.5304 42 28 42C27.4696 42 26.9609 41.7893 26.5858 41.4142C26.2107 41.0391 26 40.5304 26 40V31C26 30.4695 26.2107 29.9608 26.5858 29.5858C26.9609 29.2107 27.4696 29 28 29C28.5304 29 29.0391 29.2107 29.4142 29.5858C29.7893 29.9608 30 30.4695 30 31V40Z" fill="#7CB342"/>
<path d="M14 18.001V33C14 33.5304 14.2107 34.0391 14.5858 34.4142C14.9609 34.7893 15.4696 35 16 35H32C32.5304 35 33.0391 34.7893 33.4142 34.4142C33.7893 34.0391 34 33.5304 34 33V18.001H14ZM24 8C18 8 14.345 11.645 14 16H34C33.654 11.645 30 8 24 8ZM20 13.598C19.7348 13.598 19.4804 13.4926 19.2929 13.3051C19.1054 13.1176 19 12.8632 19 12.598C19 12.3328 19.1054 12.0784 19.2929 11.8909C19.4804 11.7034 19.7348 11.598 20 11.598C20.2652 11.598 20.5196 11.7034 20.7071 11.8909C20.8946 12.0784 21 12.3328 21 12.598C21 12.8632 20.8946 13.1176 20.7071 13.3051C20.5196 13.4926 20.2652 13.598 20 13.598ZM28 13.598C27.7348 13.598 27.4804 13.4926 27.2929 13.3051C27.1054 13.1176 27 12.8632 27 12.598C27 12.3328 27.1054 12.0784 27.2929 11.8909C27.4804 11.7034 27.7348 11.598 28 11.598C28.2652 11.598 28.5196 11.7034 28.7071 11.8909C28.8946 12.0784 29 12.3328 29 12.598C29 12.8632 28.8946 13.1176 28.7071 13.3051C28.5196 13.4926 28.2652 13.598 28 13.598Z" fill="#7CB342"/>
<path d="M18 7L19.333 9.082M30 7L28.334 9.499L30 7Z" stroke="#7CB342" stroke-width="2" stroke-linecap="round"/>
</svg>
