<svg width="56" height="55" viewBox="0 0 56 55" fill="none" xmlns="http://www.w3.org/2000/svg">
<path d="M10.666 43.25L27.9993 53L38.666 47L45.3327 43.25" stroke="black" stroke-width="4" stroke-linecap="round" stroke-linejoin="round"/>
<path d="M49.3327 37V17L32.666 7.625" stroke="black" stroke-width="4" stroke-linecap="round" stroke-linejoin="round"/>
<path d="M23.3326 7.625L6.66602 17V37" stroke="black" stroke-width="4" stroke-linecap="round" stroke-linejoin="round"/>
<path d="M24 22.0003L20 24.3337V29.0003V33.667L24 36.0003L28 38.3337L32 36.0003L36 33.667V29.0003V24.3337L32 22.0003L28 19.667L24 22.0003Z" fill="#2F88FF" stroke="black" stroke-width="4" stroke-linecap="round" stroke-linejoin="round"/>
<path d="M28 19.6668V10.3335" stroke="black" stroke-width="4" stroke-linecap="round" stroke-linejoin="round"/>
<path d="M36 33L45.3333 38.3333" stroke="black" stroke-width="4" stroke-linecap="round" stroke-linejoin="round"/>
<path d="M19.9993 33L10.666 38.3333" stroke="black" stroke-width="4" stroke-linecap="round" stroke-linejoin="round"/>
<path d="M28 10.3335C30.2091 10.3335 32 8.54263 32 6.3335C32 4.12436 30.2091 2.3335 28 2.3335C25.7909 2.3335 24 4.12436 24 6.3335C24 8.54263 25.7909 10.3335 28 10.3335Z" fill="#2F88FF" stroke="black" stroke-width="4" stroke-linecap="round" stroke-linejoin="round"/>
<path d="M6.66603 45C8.87518 45 10.666 43.2091 10.666 41C10.666 38.7909 8.87518 37 6.66603 37C4.45688 37 2.66602 38.7909 2.66602 41C2.66602 43.2091 4.45688 45 6.66603 45Z" fill="#2F88FF" stroke="black" stroke-width="4" stroke-linecap="round" stroke-linejoin="round"/>
<path d="M49.332 45C51.5412 45 53.332 43.2091 53.332 41C53.332 38.7909 51.5412 37 49.332 37C47.1229 37 45.332 38.7909 45.332 41C45.332 43.2091 47.1229 45 49.332 45Z" fill="#2F88FF" stroke="black" stroke-width="4" stroke-linecap="round" stroke-linejoin="round"/>
</svg>
