<svg width="64" height="64" viewBox="0 0 64 64" fill="none" xmlns="http://www.w3.org/2000/svg">
<path d="M62.7902 29.148L34.845 1.20746C34.4623 0.824662 34.008 0.520997 33.508 0.313817C33.008 0.106636 32.4721 0 31.9308 0C31.3896 0 30.8536 0.106636 30.3536 0.313817C29.8536 0.520997 29.3993 0.824662 29.0167 1.20746L23.2164 7.00756L30.5768 14.3677C31.4448 14.0713 32.3787 14.025 33.2719 14.2339C34.165 14.4428 34.9814 14.8986 35.6279 15.5493C36.2744 16.1999 36.725 17.0193 36.9282 17.9137C37.1314 18.8081 37.079 19.7417 36.777 20.6078L43.8693 27.7039C44.9186 27.3345 46.0625 27.3334 47.1125 27.7007C48.1625 28.0681 49.0561 28.7821 49.6462 29.7252C50.2362 30.6682 50.4875 31.784 50.3587 32.889C50.2299 33.9939 49.7287 35.022 48.9376 35.8041C48.1367 36.6099 47.0808 37.1126 45.9504 37.2264C44.82 37.3402 43.6852 37.058 42.7397 36.4281C41.7943 35.7981 41.0969 34.8594 40.7667 33.7724C40.4365 32.6853 40.4939 31.5174 40.9292 30.468L34.3169 23.8519V41.2642C35.322 41.7617 36.1262 42.5886 36.5955 43.6071C37.0648 44.6257 37.1708 45.7743 36.8959 46.8615C36.6209 47.9487 35.9817 48.9089 35.0847 49.5819C34.1876 50.255 33.087 50.6003 31.9663 50.5602C30.8455 50.5202 29.7723 50.0973 28.9256 49.3619C28.0789 48.6266 27.5097 47.6233 27.3131 46.5192C27.1164 45.4152 27.3041 44.2771 27.8449 43.2946C28.3856 42.3121 29.2467 41.5447 30.2848 41.1202V23.5479C29.6859 23.3025 29.1415 22.941 28.683 22.4842C28.2245 22.0275 27.8609 21.4845 27.6133 20.8865C27.3656 20.2886 27.2388 19.6476 27.24 19.0004C27.2413 18.3532 27.3707 17.7127 27.6206 17.1157L20.3683 9.85961L1.20749 29.02C0.824683 29.4026 0.521011 29.8568 0.313825 30.3568C0.106639 30.8568 0 31.3928 0 31.934C0 32.4752 0.106639 33.0112 0.313825 33.5112C0.521011 34.0112 0.824683 34.4654 1.20749 34.848L29.1527 62.7925C29.5353 63.1753 29.9896 63.479 30.4896 63.6862C30.9897 63.8934 31.5256 64 32.0668 64C32.6081 64 33.144 63.8934 33.644 63.6862C34.144 63.479 34.5983 63.1753 34.981 62.7925L62.7942 34.9801C63.5663 34.2068 64 33.1587 64 32.066C64 30.9733 63.5663 29.9252 62.7942 29.152" fill="#FF0000"/>
</svg>
