<svg width="256" height="346" viewBox="0 0 256 346" fill="none" xmlns="http://www.w3.org/2000/svg">
<path d="M82.5538 267.473C82.5538 267.473 69.3558 275.148 91.9468 277.745C119.316 280.867 133.303 280.42 163.464 274.711C163.464 274.711 171.394 279.683 182.467 283.99C114.856 312.967 29.4478 282.311 82.5538 267.473V267.473ZM74.2918 229.659C74.2918 229.659 59.4888 240.617 82.0968 242.955C111.333 245.971 134.421 246.218 174.373 238.525C174.373 238.525 179.899 244.127 188.588 247.191C106.841 271.095 15.7898 249.076 74.2918 229.659" fill="#5382A1"/>
<path d="M143.943 165.515C160.603 184.695 139.566 201.955 139.566 201.955C139.566 201.955 181.867 180.118 162.44 152.772C144.296 127.272 130.381 114.6 205.708 70.9141C205.708 70.9141 87.4696 100.444 143.943 165.514" fill="#E76F00"/>
<path d="M233.365 295.442C233.365 295.442 243.132 303.489 222.608 309.715C183.582 321.538 60.1758 325.108 25.8938 310.186C13.5708 304.826 36.6808 297.386 43.9498 295.824C51.5308 294.18 55.8638 294.487 55.8638 294.487C42.1588 284.832 -32.7192 313.444 17.8298 321.637C155.683 343.993 269.122 311.571 233.365 295.442ZM88.9008 190.48C88.9008 190.48 26.1298 205.39 66.6728 210.803C83.7908 213.095 117.916 212.577 149.703 209.913C175.681 207.723 201.766 203.063 201.766 203.063C201.766 203.063 192.606 206.986 185.979 211.511C122.235 228.276 -0.907219 220.477 34.5438 203.328C64.5248 188.836 88.9018 190.48 88.9018 190.48H88.9008ZM201.507 253.422C266.307 219.75 236.346 187.392 215.434 191.752C210.308 192.818 208.023 193.742 208.023 193.742C208.023 193.742 209.926 190.762 213.56 189.472C254.93 174.927 286.747 232.369 200.205 255.119C200.205 255.12 201.208 254.224 201.507 253.422Z" fill="#5382A1"/>
<path d="M162.439 0.371117C162.439 0.371117 198.326 36.2711 128.402 91.4721C72.3315 135.754 115.616 161.002 128.379 189.849C95.6495 160.319 71.6295 134.323 87.7445 110.129C111.395 74.6121 176.918 57.3931 162.439 0.370117" fill="#E76F00"/>
<path d="M95.2685 344.665C157.467 348.647 252.98 342.456 255.242 313.025C255.242 313.025 250.894 324.183 203.838 333.043C150.75 343.033 85.2745 341.867 46.4395 335.464C46.4405 335.464 54.3895 342.044 95.2695 344.665" fill="#5382A1"/>
</svg>
