<svg width="64" height="64" viewBox="0 0 64 64" fill="none" xmlns="http://www.w3.org/2000/svg">
<path d="M29.904 0.0158451C29.7653 0.0291784 29.328 0.0745117 28.9333 0.103845C19.8453 0.925178 11.3333 5.82918 5.936 13.3678C2.95547 17.5058 1.01792 22.3021 0.288 27.3492C0.032 29.1092 0 29.6265 0 32.0105C0 34.3945 0.032 34.9145 0.288 36.6718C2.02667 48.6905 10.5813 58.7865 22.1787 62.5278C24.256 63.1972 26.4453 63.6532 28.9333 63.9305C29.904 64.0372 34.096 64.0372 35.0667 63.9305C39.3627 63.4532 43.0053 62.3892 46.5947 60.5572C47.1467 60.2772 47.2533 60.1998 47.1787 60.1385C45.4229 57.8231 43.6851 55.4941 41.9653 53.1518L36.848 46.2372L30.4373 36.7465C28.3043 33.5721 26.1514 30.4112 23.9787 27.2638C23.9547 27.2558 23.9307 31.4718 23.9173 36.6238C23.8987 45.6372 23.8907 45.9998 23.7787 46.2132C23.6694 46.4622 23.4745 46.6637 23.2293 46.7812C23.0293 46.8825 22.856 46.9012 21.9093 46.9012H20.8267L20.5387 46.7198C20.3605 46.6073 20.2158 46.4489 20.12 46.2612L19.9867 45.9812L20 33.4372L20.0187 20.8878L20.2133 20.6425C20.3444 20.4891 20.5015 20.36 20.6773 20.2612C20.9333 20.1358 21.032 20.1252 22.1173 20.1252C23.392 20.1252 23.6053 20.1732 23.936 20.5358C24.0293 20.6372 27.5013 25.8692 31.656 32.1678L44.28 51.2932L49.3467 58.9678L49.6053 58.7998C52.0437 57.1787 54.2544 55.2389 56.1787 53.0318C60.2111 48.4166 62.8268 42.7363 63.712 36.6718C63.968 34.9118 64 34.3945 64 32.0105C64 29.6265 63.968 29.1092 63.712 27.3492C61.9733 15.3332 53.4187 5.23451 41.8213 1.49318C39.6538 0.80403 37.4219 0.336744 35.16 0.0985117C34.5573 0.0345117 30.424 -0.0348216 29.9067 0.0185117L29.904 0.0158451ZM43.0053 19.3758C43.154 19.4507 43.2865 19.5543 43.3949 19.6807C43.5034 19.807 43.5858 19.9535 43.6373 20.1118C43.6853 20.2718 43.6987 23.7518 43.6853 31.5918L43.6667 42.8399L41.6853 39.7998L39.696 36.7598V28.5838C39.696 23.2958 39.72 20.3252 39.7573 20.1812C39.8017 20.0146 39.8794 19.8588 39.9858 19.7231C40.0921 19.5874 40.2249 19.4747 40.376 19.3918C40.6347 19.2585 40.728 19.2478 41.7093 19.2478C42.6347 19.2478 42.7973 19.2612 43.0053 19.3732V19.3758Z" fill="black"/>
</svg>
