<svg width="64" height="64" viewBox="0 0 64 64" fill="none" xmlns="http://www.w3.org/2000/svg">
<path d="M32 63.8812C31.0063 63.8812 30.0788 63.6465 29.2175 63.2357L20.4058 58.5993C19.0807 57.9538 19.7433 57.719 20.1408 57.6017C21.9295 57.0735 22.2607 56.9561 24.1157 56.0169C24.3147 55.8996 24.5798 55.9583 24.7782 56.0756L31.5362 59.6557C31.8012 59.773 32.1325 59.773 32.3312 59.6557L58.7663 46.0989C59.0312 45.9816 59.1637 45.7468 59.1637 45.4534V18.3982C59.1637 18.1048 59.0312 17.8701 58.7663 17.7527L32.3312 4.25445C32.0662 4.13708 31.735 4.13708 31.5362 4.25445L5.10125 17.7529C4.83625 17.8703 4.70375 18.1637 4.70375 18.3985V45.4534C4.70375 45.6881 4.83625 45.9816 5.10125 46.0989L12.323 49.7961C16.232 51.5567 18.683 49.5027 18.683 47.4487V20.7456C18.683 20.3935 19.0145 20.0414 19.4783 20.0414H22.8573C23.2547 20.0414 23.6523 20.3348 23.6523 20.7456V47.4485C23.6523 52.0848 20.8032 54.7843 15.8343 54.7843C14.3105 54.7843 13.118 54.7843 9.73925 53.3172L2.7825 49.7961C1.06 48.9156 0 47.2724 0 45.5119V18.4571C0 16.6966 1.06 15.0534 2.7825 14.1729L29.2175 0.616194C30.8738 -0.205398 33.1263 -0.205398 34.7825 0.616194L61.2175 14.1729C62.94 15.0532 64 16.6964 64 18.4571V45.5121C64 47.2726 62.94 48.9158 61.2175 49.7961L34.7825 63.3533C33.9212 63.7054 32.9275 63.8814 32 63.8814V63.8812ZM40.149 45.2771C28.5547 45.2771 26.1698 40.5823 26.1698 36.5915C26.1698 36.2394 26.501 35.8873 26.9648 35.8873H30.4097C30.8072 35.8873 31.1388 36.122 31.1388 36.4741C31.6688 39.5844 33.1925 41.1105 40.2152 41.1105C45.7805 41.1105 48.1657 39.9955 48.1657 37.3546C48.1657 35.8286 47.5033 34.7136 38.824 33.9505C31.6025 33.3049 27.0972 31.8965 27.0972 26.7909C27.0972 22.0369 31.6023 19.22 39.1553 19.22C47.6355 19.22 51.8095 21.8022 52.3395 27.4362C52.3395 27.6122 52.2733 27.7883 52.1408 27.9643C52.0083 28.0817 51.8095 28.1991 51.6107 28.1991H48.1657C47.8342 28.1991 47.5033 27.9643 47.4367 27.6709C46.6418 24.4432 44.588 23.3869 39.1553 23.3869C33.0602 23.3869 32.3312 25.2648 32.3312 26.6733C32.3312 28.3754 33.1925 28.9033 41.4077 29.8423C49.557 30.7812 53.3995 32.1312 53.3995 37.1784C53.3333 42.3429 48.5632 45.2771 40.149 45.2771Z" fill="#539E43"/>
</svg>
