<svg width="63" height="64" viewBox="0 0 63 64" fill="none" xmlns="http://www.w3.org/2000/svg">
<path d="M61.8203 38.3239C61.4482 37.1969 60.4734 36.4119 59.2128 36.2235C58.6184 36.1348 57.9377 36.1726 57.1321 36.3387C55.728 36.6284 54.6863 36.7387 53.926 36.76C56.7956 31.9152 59.1289 26.3903 60.4722 21.1896C62.6443 12.7801 61.4836 8.94911 60.1272 7.21626C56.5377 2.6296 51.3006 0.165598 44.9825 0.0902043C41.6121 0.0489922 38.6533 0.714447 37.1098 1.19299C35.6727 0.939416 34.1275 0.797841 32.5061 0.771659C29.4669 0.723174 26.7815 1.38572 24.487 2.74742C23.2167 2.31784 21.1779 1.71226 18.8235 1.32584C13.286 0.41675 8.82299 1.12511 5.55851 3.4313C1.60554 6.22354 -0.226947 11.0749 0.111962 17.8507C0.219599 20.002 1.42299 26.5474 3.31778 32.7549C4.40675 36.3229 5.56796 39.2858 6.76918 41.5622C8.47269 44.7901 10.2955 46.6909 12.3418 47.3736C13.4887 47.7557 15.5726 48.0233 17.7643 46.1978C18.0421 46.5343 18.4128 46.8686 18.9047 47.1792C19.5294 47.5731 20.2933 47.8951 21.0562 48.0858C23.8055 48.7731 26.3808 48.6012 28.5779 47.6378C28.5915 48.0286 28.6019 48.402 28.6106 48.7244C28.6252 49.2473 28.6397 49.76 28.6589 50.2395C28.7891 53.4817 29.0097 56.0027 29.6632 57.7666C29.6991 57.8635 29.7474 58.0114 29.7983 58.1683C30.1243 59.1666 30.6695 60.8378 32.0567 62.1467C33.4931 63.5026 35.2305 63.9183 36.8218 63.9183C37.6198 63.9183 38.3813 63.8136 39.0492 63.6706C41.4298 63.1603 44.1335 62.383 46.0894 59.5981C47.9386 56.9654 48.8375 53 49.0002 46.752C49.0213 46.5753 49.0407 46.4066 49.0594 46.2458L49.0981 45.9157L49.5338 45.954L49.646 45.9615C52.0708 46.072 55.0356 45.5578 56.8564 44.712C58.2952 44.0444 62.9059 41.6102 61.8203 38.3239Z" fill="black"/>
<path d="M57.6749 38.9628C50.4652 40.4501 49.9695 38.0091 49.9695 38.0091C57.5816 26.7139 60.7639 12.3762 58.0179 8.86707C50.5261 -0.705056 37.5576 3.82197 37.3411 3.93931L37.2715 3.95191C35.847 3.65616 34.2531 3.48016 32.4613 3.45082C29.1993 3.39749 26.7246 4.3061 24.8468 5.7301C24.8468 5.7301 1.71224 -3.80057 2.78836 17.7165C3.01721 22.294 9.34934 52.3524 16.9018 43.2734C19.6623 39.9534 22.3297 37.1463 22.3297 37.1463C23.6543 38.0263 25.2402 38.4753 26.9028 38.3141L27.032 38.2045C26.9918 38.6166 27.0102 39.0198 27.0836 39.4971C25.1379 41.6709 25.7098 42.0525 21.8204 42.8532C17.8846 43.6644 20.1966 45.1083 21.7062 45.486C23.5362 45.9434 27.7699 46.5917 30.6305 42.5871L30.5166 43.044C31.2788 43.6547 31.8141 47.0157 31.7244 50.0627C31.6347 53.1095 31.5748 55.2014 32.1753 56.8353C32.7762 58.4692 33.3748 62.1456 38.488 61.0501C42.7602 60.1345 44.9743 57.7619 45.2824 53.804C45.5009 50.9905 45.9956 51.4065 46.0267 48.8908L46.4235 47.7C46.881 43.886 46.4962 42.6554 49.1283 43.2278L49.7682 43.284C51.7052 43.372 54.241 42.9723 55.7292 42.2806C58.9336 40.7936 60.8342 38.3105 57.6744 38.9628H57.6749Z" fill="#336791"/>
<path d="M26.1996 19.7639C25.5499 19.6734 24.9615 19.7571 24.6638 19.9825C24.4966 20.1093 24.4447 20.2562 24.4306 20.3573C24.3933 20.6252 24.5809 20.9214 24.6963 21.0742C25.0226 21.5067 25.4992 21.8039 25.971 21.8693C26.0393 21.879 26.1075 21.8834 26.1751 21.8834C26.9618 21.8834 27.6772 21.2708 27.7402 20.8187C27.819 20.2523 26.9969 19.8749 26.1996 19.7641V19.7639ZM47.723 19.7818C47.6609 19.3379 46.8711 19.2114 46.1215 19.3156C45.3729 19.4199 44.6471 19.7578 44.7077 20.2027C44.7562 20.5486 45.3809 21.1391 46.1203 21.1391C46.1829 21.1391 46.2459 21.135 46.3094 21.126C46.803 21.0577 47.1652 20.7442 47.3373 20.5636C47.5991 20.2882 47.7509 19.9813 47.723 19.7818Z" fill="white"/>
<path d="M60.073 38.7941C59.7981 37.9628 58.9133 37.6954 57.4432 37.9989C53.0784 38.8998 51.5152 38.2758 51.002 37.8979C54.3947 32.7294 57.1857 26.4816 58.6914 20.6525C59.4047 17.8913 59.7986 15.327 59.8308 13.2368C59.8665 10.9427 59.4757 9.25689 58.6699 8.22707C55.4209 4.07556 50.6524 1.84865 44.8803 1.78756C40.9121 1.74295 37.5593 2.75847 36.9094 3.04404C35.5407 2.70368 34.0485 2.49471 32.4241 2.46804C29.4451 2.4198 26.8701 3.13301 24.7382 4.58683C23.8122 4.2421 21.419 3.42053 18.4922 2.94901C13.4323 2.13447 9.41144 2.75168 6.54211 4.78441C3.11835 7.2101 1.53775 11.5461 1.84393 17.6717C1.94696 19.7325 3.12126 26.0724 4.97435 32.1439C7.41363 40.1352 10.0653 44.6591 12.8551 45.5897C13.1816 45.6986 13.5581 45.7747 13.9734 45.7747C14.9911 45.7747 16.2388 45.316 17.537 43.7553C19.1204 41.8558 20.7584 40.0024 22.4488 38.1975C23.5455 38.7861 24.7504 39.1148 25.9826 39.1478C25.985 39.18 25.9882 39.2123 25.9911 39.2443C25.779 39.4972 25.5713 39.7538 25.368 40.014C24.5142 41.0979 24.3365 41.3236 21.5882 41.8894C20.8064 42.0508 18.73 42.4787 18.6994 43.9342C18.6665 45.5245 21.154 46.1924 21.4374 46.2632C22.425 46.5105 23.3765 46.6324 24.2839 46.6324C26.4907 46.6324 28.4328 45.9071 29.9848 44.5037C29.937 50.173 30.1734 55.7594 30.8541 57.4615C31.4117 58.8549 32.7736 62.2603 37.0757 62.26C37.707 62.26 38.4017 62.1866 39.1661 62.0227C43.6561 61.0603 45.6059 59.0758 46.3601 54.7008C46.7637 52.3626 47.4563 46.7793 47.7821 43.7844C48.4696 43.999 49.3547 44.0971 50.3116 44.0969C52.3072 44.0969 54.61 43.6729 56.0541 43.0026C57.6764 42.2491 60.6039 40.4004 60.073 38.7941ZM49.3807 18.5565C49.3659 19.4406 49.2442 20.2433 49.1152 21.0811C48.9763 21.9822 48.8328 22.9139 48.7967 24.0448C48.761 25.1454 48.8985 26.2896 49.0313 27.3963C49.2999 29.6314 49.5756 31.9325 48.5087 34.2031C48.3314 33.889 48.1736 33.5645 48.0359 33.2312C47.9033 32.9097 47.6153 32.3934 47.2165 31.6787C45.6653 28.8966 42.0325 22.3817 43.8922 19.7233C44.4461 18.932 45.8519 18.1185 49.3807 18.5565ZM45.1033 3.57786C50.2752 3.69204 54.3664 5.62683 57.2628 9.32816C59.4844 12.1672 57.0381 25.0853 49.9562 36.2297C49.885 36.1392 49.8134 36.0489 49.7414 35.959L49.6517 35.847C51.4817 32.8246 51.1239 29.8343 50.8054 27.1832C50.6745 26.0952 50.5508 25.0676 50.5824 24.1022C50.6148 23.0792 50.7501 22.2016 50.881 21.3531C51.0417 20.3076 51.2054 19.2256 51.1603 17.9502C51.194 17.8164 51.2076 17.6583 51.1899 17.4707C51.0747 16.2477 49.6784 12.5873 46.8323 9.27435C45.2754 7.46222 43.0051 5.43435 39.9053 4.06659C41.2386 3.79022 43.0619 3.53253 45.1033 3.57786ZM16.1632 42.613C14.7329 44.3328 13.7453 44.0031 13.4204 43.8949C11.3041 43.189 8.84829 38.7158 6.6832 31.6225C4.80975 25.4848 3.71496 19.3129 3.62817 17.5822C3.35472 12.1088 4.6815 8.29422 7.57193 6.24428C12.2759 2.90853 20.0097 4.90513 23.1174 5.91774C23.0728 5.96186 23.0262 6.00307 22.9821 6.04792C17.8825 11.198 18.0034 19.997 18.0161 20.535C18.0156 20.7425 18.033 21.0363 18.0568 21.4404C18.1445 22.9204 18.3079 25.6748 17.8716 28.7941C17.4662 31.6928 18.3598 34.5299 20.3227 36.5781C20.5242 36.7879 20.7359 36.9876 20.9571 37.1764C20.0834 38.1122 18.1845 40.1815 16.1632 42.613ZM21.6127 35.342C20.0306 33.6911 19.312 31.3948 19.641 29.0414C20.1016 25.7463 19.9317 22.8765 19.8403 21.3347C19.8274 21.1189 19.816 20.9299 19.8095 20.7808C20.5545 20.1202 24.0068 18.2705 26.4689 18.8346C27.5923 19.0918 28.2769 19.8569 28.5615 21.1728C30.0345 27.9856 28.7564 30.8251 27.7295 33.1071C27.5179 33.5771 27.3179 34.0215 27.1472 34.4811L27.0148 34.8365C26.6798 35.7349 26.3681 36.5703 26.1748 37.3636C24.4929 37.3587 22.8568 36.6402 21.6127 35.3417V35.342ZM21.8708 44.5299C21.3797 44.4072 20.938 44.1941 20.6788 44.0174C20.8953 43.9156 21.2805 43.7769 21.9487 43.6392C25.1819 42.9737 25.6813 42.5039 26.7717 41.1194C27.0216 40.8019 27.305 40.4421 27.6975 40.0038L27.698 40.0033C28.2825 39.3488 28.5499 39.4598 29.0347 39.661C29.4277 39.8234 29.8105 40.316 29.9656 40.8581C30.0391 41.1141 30.1215 41.5999 29.8517 41.9781C27.5739 45.1674 24.2546 45.1265 21.8708 44.5299ZM38.7918 60.2758C34.8364 61.1233 33.4359 59.1051 32.513 56.798C31.9174 55.3085 31.6245 48.5919 31.8323 41.1745C31.835 41.0758 31.8209 40.9805 31.7937 40.8908C31.7695 40.7137 31.7325 40.5385 31.6832 40.3667C31.3744 39.2874 30.6216 38.3846 29.7186 38.0103C29.3598 37.8617 28.7014 37.589 27.9101 37.7914C28.0788 37.0962 28.3714 36.3109 28.6888 35.4608L28.8219 35.1032C28.9717 34.7 29.1598 34.2823 29.3586 33.8402C30.4333 31.4528 31.905 28.1827 30.3077 20.7953C29.7094 18.0283 27.7113 16.677 24.6825 16.991C22.8667 17.1788 21.2054 17.9114 20.3768 18.3316C20.1986 18.4217 20.0357 18.509 19.8834 18.5939C20.1147 15.806 20.9884 10.5958 24.2568 7.29931C26.3147 5.22416 29.0553 4.19919 32.3945 4.25447C38.9739 4.3621 43.193 7.73859 45.5741 10.5524C47.626 12.9769 48.737 15.4193 49.1804 16.7366C45.8459 16.3975 43.578 17.0557 42.4284 18.6993C39.9273 22.2746 43.7967 29.2137 45.6563 32.5488C45.9974 33.1599 46.2917 33.6882 46.3843 33.9126C46.9899 35.3803 47.7739 36.3602 48.3462 37.0753C48.5217 37.2945 48.6919 37.5071 48.8214 37.6928C47.8114 37.9839 45.9974 38.6566 46.1627 42.0193C46.0294 43.7066 45.0813 51.6062 44.5996 54.3973C43.9637 58.0845 42.6068 59.4579 38.7918 60.276V60.2758ZM55.3019 41.3822C54.2691 41.8615 52.5409 42.221 50.8992 42.2983C49.0859 42.3832 48.1627 42.0952 47.9455 41.918C47.8437 39.8225 48.6236 39.6036 49.449 39.3718C49.5787 39.3354 49.7053 39.2998 49.8274 39.2571C49.9033 39.319 49.9865 39.3803 50.0776 39.4404C51.5351 40.4023 54.1346 40.5061 57.8047 39.7485L57.8449 39.7405C57.3499 40.2033 56.5028 40.8244 55.3019 41.3822Z" fill="white"/>
</svg>
