<svg width="64" height="64" viewBox="0 0 64 64" fill="none" xmlns="http://www.w3.org/2000/svg">
<path d="M52.6208 20.7225C51.9396 20.4601 51.2528 20.217 50.5607 19.9935C50.677 19.4602 50.784 18.9333 50.879 18.4157C52.4385 9.91574 51.419 3.06802 47.9367 0.813425C44.598 -1.34798 39.1377 0.905776 33.6232 6.29441C33.0798 6.82643 32.5484 7.37379 32.0295 7.93595C31.6822 7.56213 31.3287 7.19557 30.9692 6.83644C25.1898 1.07476 19.3967 -1.35359 15.9183 0.90746C12.5825 3.0756 11.5947 9.51293 12.9987 17.5685C13.1384 18.3663 13.2962 19.16 13.4718 19.9489C12.6518 20.2105 11.8605 20.4889 11.1032 20.7854C4.32725 23.438 0 27.5949 0 31.9068C0 36.3601 4.6455 40.8269 11.703 43.5354C12.2752 43.7541 12.8521 43.9567 13.4333 44.1431C13.2445 44.9927 13.0769 45.8481 12.9307 46.7082C11.5922 54.624 12.6375 60.9092 15.9642 63.0635C19.4002 65.2884 25.1672 63.0018 30.7825 57.4902C31.2378 57.0421 31.6831 56.5813 32.118 56.1083C32.6799 56.717 33.2568 57.308 33.848 57.8807C39.2875 63.136 44.6595 65.2581 47.983 63.0978C51.4158 60.8665 52.5315 54.1145 51.083 45.8997C50.9689 45.2562 50.8409 44.6158 50.6992 43.9792C51.1042 43.8444 51.5018 43.7058 51.8893 43.5615C59.2262 40.8322 64 36.4196 64 31.9068C64 27.5792 59.533 23.3942 52.6208 20.7225ZM51.0295 40.6478C50.6795 40.7778 50.3205 40.9033 49.9545 41.0254C49.1445 38.1462 48.0515 35.0849 46.7137 31.9216C47.9902 28.8339 49.0412 25.8116 49.8285 22.9513C50.4832 23.164 51.1185 23.3883 51.731 23.6249C57.6535 25.9143 61.266 29.2988 61.266 31.9068C61.266 34.6846 57.3645 38.2908 51.0295 40.6478ZM48.401 46.496C49.0415 50.1282 49.1328 53.4124 48.7085 55.98C48.3275 58.2871 47.561 59.8251 46.613 60.4412C44.5962 61.7521 40.283 60.0482 35.6312 55.5536C35.0813 55.0213 34.5447 54.4718 34.022 53.9059C35.8255 51.6915 37.6278 49.1172 39.3867 46.2579C42.4808 45.9497 45.4038 45.4456 48.0545 44.7576C48.1822 45.3339 48.2977 45.9135 48.401 46.496ZM21.819 60.2147C19.8485 60.9959 18.279 61.0183 17.3302 60.4042C15.3115 59.0969 14.4722 54.0502 15.617 47.2808C15.7531 46.4809 15.9089 45.6853 16.0842 44.8951C18.7057 45.5463 21.6075 46.0146 24.7087 46.2969C26.4797 49.0947 28.334 51.6662 30.2027 53.918C29.8056 54.3495 29.3991 54.7699 28.9835 55.1789C26.5002 57.616 24.012 59.3451 21.819 60.2147ZM12.5875 40.6307C9.46675 39.4329 6.8895 37.8764 5.123 36.1779C3.5355 34.6517 2.73425 33.1362 2.73425 31.9068C2.73425 29.2901 6.2085 25.9525 12.0033 23.6842C12.7065 23.4091 13.4425 23.1494 14.2063 22.9058C15.0072 25.8307 16.0578 28.8889 17.3255 31.9814C16.0413 35.1197 14.9757 38.2268 14.167 41.1862C13.6365 41.0156 13.1099 40.8304 12.5875 40.6307ZM15.682 16.9788C14.4792 10.0771 15.278 4.87097 17.2882 3.5643C19.4293 2.17258 24.1637 4.15686 29.154 9.13202C29.4794 9.45718 29.7995 9.78893 30.1143 10.1271C28.2547 12.3691 26.4175 14.9215 24.6623 17.7027C21.6523 18.016 18.771 18.519 16.122 19.1929C15.9588 18.4592 15.8121 17.721 15.682 16.979V16.9788ZM43.2887 24.6329C42.6631 23.4194 42.0142 22.2212 41.3425 21.0391C43.3845 21.3291 45.341 21.7139 47.1782 22.1844C46.6268 24.1695 45.9393 26.2447 45.13 28.3724C44.5385 27.1123 43.9246 25.8656 43.2887 24.6329ZM32.0308 12.3211C33.2918 13.8551 34.5548 15.5677 35.797 17.4259C33.277 17.2923 30.7528 17.2917 28.2327 17.4242C29.4762 15.5831 30.75 13.8728 32.0308 12.3211ZM20.7005 24.654C20.0726 25.8767 19.4702 27.1157 18.8937 28.3699C18.0977 26.2498 17.4165 24.165 16.8603 22.1518C18.6863 21.6931 20.6335 21.3181 22.6625 21.0335C21.9834 22.2228 21.3292 23.4299 20.7005 24.6537V24.654ZM22.7208 42.9984C20.6245 42.7357 18.648 42.38 16.8225 41.9337C17.3875 39.8846 18.0837 37.7555 18.897 35.5899C19.4757 36.845 20.0806 38.0848 20.7113 39.308C21.3598 40.5656 22.0312 41.7973 22.7208 42.9984ZM32.1063 51.7086C30.8103 50.1389 29.5177 48.4022 28.2555 46.5344C29.481 46.5883 30.7302 46.6158 32 46.6158C33.3045 46.6158 34.594 46.583 35.8633 46.5195C34.617 48.421 33.3587 50.1602 32.1063 51.7086ZM45.1558 35.4793C46.0112 37.6687 46.7323 39.7866 47.3047 41.8007C45.4492 42.2762 43.4458 42.659 41.3348 42.9434C42.0112 41.7393 42.6662 40.5203 43.2995 39.287C43.9433 38.0334 44.5622 36.7638 45.1558 35.4793ZM40.9313 37.7532C39.9618 39.6441 38.9378 41.4991 37.861 43.3153C35.9104 43.4704 33.9555 43.5475 32 43.5463C30.0082 43.5463 28.071 43.4767 26.2055 43.3409C25.1006 41.5289 24.0571 39.6706 23.0772 37.7701H23.0775C22.1023 35.8796 21.1914 33.9482 20.3468 31.98C21.1892 30.0114 22.0974 28.0791 23.0693 26.1872L23.069 26.1875C24.0405 24.295 25.0757 22.4447 26.1723 20.6405C28.0755 20.4788 30.0273 20.3946 31.9998 20.3946H32C33.9815 20.3946 35.9358 20.4797 37.8385 20.6425C38.924 22.444 39.9526 24.2879 40.9222 26.1709C41.8974 28.0587 42.8175 29.9816 43.6813 31.9365C42.8264 33.9115 41.9091 35.8516 40.9313 37.7532ZM46.5713 3.47279C48.7143 4.86058 49.5477 10.4569 48.2012 17.7959C48.1152 18.2641 48.0187 18.741 47.9137 19.2247C45.2583 18.5364 42.375 18.0247 39.3563 17.7066C37.5978 14.8948 35.7755 12.3385 33.9463 10.1254C34.4257 9.60655 34.9165 9.10113 35.4183 8.60964C40.1432 3.99293 44.5592 2.17006 46.5713 3.47279ZM32 25.4899C35.1562 25.4899 37.715 28.3629 37.715 31.9068C37.715 35.4506 35.1562 38.3236 32 38.3236C28.8438 38.3236 26.285 35.4506 26.285 31.9068C26.285 28.3629 28.8438 25.4899 32 25.4899Z" fill="#00D8FF"/>
</svg>
