<svg width="996" height="1001" viewBox="0 0 996 1001" fill="none" xmlns="http://www.w3.org/2000/svg">
<path d="M501.984 0.000748782C306.1 -0.340251 121.729 115.813 37.1145 299.67L275.034 300.236V326.256C201.773 317.44 208.224 355.484 218.595 395.863L374.778 787.292L489.573 518.2L436.874 392.092C417.732 358.315 417.328 320.842 339.016 324.371L340.116 300.393L689.059 301.242V328.111C648.194 330.508 599.002 317.837 625.078 401.52L766.208 772.24L843.357 555.816C868.62 465.092 844.844 377.906 814.823 292.411C798.126 235.056 805.913 187.157 880.753 168.156C766.518 51.5507 631.728 0.226749 501.988 0.000748782H501.984ZM976.564 342.251L750.335 931.94C812.811 877.83 876.87 858.134 955.257 708.414C1007.41 583.882 1002.04 468.517 976.564 342.25V342.251ZM13.1685 351.804C-8.91247 525.889 -6.89247 576.877 47.7675 719.037C119.018 855.191 174.27 883.877 252.69 937.283L13.1675 351.804H13.1685ZM510.815 572.69L343.163 977.192C460.844 1010.78 566.141 1006.58 662.535 969.21L510.815 572.689V572.69Z" fill="black"/>
</svg>
